<svg version="1.1" id="Calque_1" xmlns="http://www.w3.org/2000/svg" xmlns:xlink="http://www.w3.org/1999/xlink" x="0px" y="0px" viewBox="0 0 3477.4 891.1" style="enable-background:new 0 0 3477.4 891.1;" xml:space="preserve">
<style type="text/css">
	.st0{fill:#FFFFFF;}
	.st1{fill:#00A5AE;}
</style>
<g>
	<path class="st0" d="M1577.6,697.4c0-7-6.1-10.9-15.9-10.9h-22.9v22.6c9.5,0.4,16.1,0.6,19.6,0.6   C1571.2,709.6,1577.6,705.5,1577.6,697.4 M1547.8,646.6h-9v23.3h20c9.2,0,15.3-4.8,15.3-12.2c0-8-5.7-11.2-17.8-11.2   C1554.6,646.4,1551.7,646.4,1547.8,646.6 M1597.8,699.6c0,17.8-13.6,27.8-36.8,27.8c-13.5,0-27.7-0.4-42.6-1.3v-96.6   c16.3-0.4,29.8-0.7,40.5-0.7c22.2,0,34.7,9.2,34.7,25.7c0,10.9-6.8,19.6-17.6,22.6C1589.4,679.8,1597.8,688.6,1597.8,699.6"></path>
	<polygon class="st0" points="1701.7,726.1 1684.7,726.1 1659.8,674.6 1656.4,726.1 1636.5,726.1 1641.9,629.5 1660.8,629.5    1693.2,700.8 1725.4,629.5 1744.4,629.5 1749.8,726.1 1729.8,726.1 1726.4,674.6  "></polygon>
	<path class="st0" d="M1872,651c-12.4-2.6-21.6-3.8-27.8-3.8c-11.1,0-19.6,2.8-25.7,8.5c-6,5.5-8.9,12.9-8.9,21.9   c0,9.5,3,17,9.1,22.9c6.1,5.8,14.1,8.7,24,8.7c6.3,0,16.1-1.4,29.4-4.1l3.5,18c-12.1,3.5-23.4,5.3-34.1,5.3   c-16,0-29.1-4.7-38.9-13.9c-9.8-9.2-14.8-21.4-14.8-36.6c0-15.1,5-27.1,14.8-36.4c9.8-9.2,22.7-13.9,38.8-13.9   c11.2,0,22.7,1.4,34.2,4.4L1872,651z"></path>
	<polygon class="st0" points="1982.1,668.6 1982.1,687.1 1937.3,687.1 1937.3,707.5 1988.2,707.5 1988.2,726.1 1916.8,726.1    1916.8,629.5 1988.2,629.5 1988.2,648.2 1937.3,648.2 1937.3,668.6  "></polygon>
	<path class="st0" d="M2174.3,717.7c-16.9,7-32,10.5-44.9,10.5c-15.5,0-28-4.7-37.5-13.9c-9.5-9.4-14.2-21.7-14.2-36.9   c0-14.9,5-27,14.8-36.2c9.9-9.2,23-13.8,39.3-13.8c11.2,0,22.4,1.4,33.8,4.3l-3.8,18.9c-14.3-2.4-23.9-3.5-28.3-3.5   c-10.4,0-18.6,2.8-25,8.4c-6.2,5.5-9.4,12.9-9.4,22c0,9.2,2.8,16.8,8.4,22.6c5.5,5.7,12.9,8.5,22,8.5c7.4,0,16.1-1.3,25.9-3.7v-17   h-32.8v-18.3h51.7V717.7z"></path>
	<path class="st0" d="M2255.6,678.7c10.2,0,17.6-6.7,17.6-16.3c0-10.4-7.1-15.3-19-15.3c-7.5,0-13.2,0-17,0.1v31.5H2255.6z    M2248.5,696.6h-11.4v29.5h-20.4v-96.6c15.1-0.6,27.4-0.9,37.2-0.9c24.3,0,39.5,12.2,39.5,33.7c0,12.6-6.8,23.2-18.2,29.3   l24.4,34.5h-24.7l-19.9-29.5H2248.5z"></path>
	<path class="st0" d="M2381.7,709.1c8.8,0,16.1-2.8,21.7-8.7c5.7-5.8,8.5-13.4,8.5-22.6c0-9.2-2.8-16.8-8.5-22.4   c-5.7-5.8-12.9-8.7-21.7-8.7c-8.8,0-16,2.8-21.7,8.7c-5.7,5.7-8.5,13.2-8.5,22.4c0,9.2,2.8,16.8,8.5,22.6   C2365.7,706.2,2372.9,709.1,2381.7,709.1 M2381.7,627.4c15.2,0,27.7,4.7,37.2,13.9c9.7,9.2,14.5,21.4,14.5,36.5   c0,15.1-4.8,27.3-14.5,36.5c-9.5,9.2-22,13.9-37.2,13.9c-15.2,0-27.7-4.7-37.4-13.9c-9.5-9.2-14.3-21.4-14.3-36.5   c0-15.1,4.8-27.3,14.3-36.5C2354,632.1,2366.5,627.4,2381.7,627.4"></path>
	<path class="st0" d="M2560.7,683.7c0,13.8-4,24.7-12.1,32.7c-8.1,8-18.7,11.9-32.2,11.9c-13.5,0-24.1-4-32.2-11.9   c-8-8-11.9-18.9-11.9-32.7v-54.1h20.4v54.1c0,15.9,9.1,25.4,23.7,25.4c14.3,0,23.7-9.5,23.7-25.4v-54.1h20.6V683.7z"></path>
	<path class="st0" d="M2640.6,679.4c10.9,0,18.9-6.5,18.9-16.6c0-9.8-7.7-15.8-18.9-15.8c-7.8,0-13.5,0.1-17,0.3v32.1H2640.6z    M2668.3,637.6c7.5,6.1,11.2,14.5,11.2,25c0,10.5-3.8,19-11.4,25.4c-7.5,6.4-17.3,9.7-29.4,9.7h-15.2v28.4h-20.5v-96.6   c14.1-0.9,25.8-1.3,35.6-1.3C2651,628.3,2660.8,631.4,2668.3,637.6"></path>
	<path class="st0" d="M177.8,472.1c0-12.6-10.8-19.7-28-19.7H111V494c3.1,0,8.6,0.3,16.8,0.6c8.3,0.3,14.3,0.3,17.4,0.3   C166.9,494.9,177.8,487.2,177.8,472.1 M111,375.6v42.8h34c16.3,0,27.1-8.8,27.1-22.6c0-13.4-10.3-20.3-30.5-20.3H111z M224.9,478.9   c0,35.1-28,55.4-73.7,55.4c-26.6,0-56-0.9-88.2-2.3V337.9c31.7-1.1,59.7-1.7,84.5-1.7c43.7,0,69.7,18.8,69.7,51.7   c0,22-13.1,40-33.7,46C208.6,439.5,224.9,457.2,224.9,478.9"></path>
	<path class="st0" d="M330.2,459.2h53.4l-26.8-64.8L330.2,459.2z M300.5,532h-52.5l86.5-195.3h44.8L465.5,532h-52.2l-13.4-32h-86.2   L300.5,532z"></path>
	<polygon class="st0" points="684.7,532 640.7,532 550.5,419.2 550.5,532 502.5,532 502.5,337.9 546.8,337.9 636.7,451.5    636.7,337.9 684.7,337.9  "></polygon>
	<polygon class="st0" points="785.1,532 737.2,532 737.2,337.9 785.1,337.9 785.1,419.8 794.5,419.8 857.9,337.9 916.2,337.9    845.6,428.4 920.7,532 861.9,532 815.1,466.6 785.1,466.6  "></polygon>
	<path class="st0" d="M1125.5,489.2c-30.3,0-54.8-24.5-54.8-54.8c0-30.3,24.5-54.8,54.8-54.8c30.3,0,54.8,24.5,54.8,54.8   C1180.3,464.7,1155.8,489.2,1125.5,489.2 M1125.5,333.1c-56,0-101.3,45.4-101.3,101.3c0,56,45.4,101.3,101.3,101.3   c56,0,101.3-45.4,101.3-101.3C1226.9,378.5,1181.5,333.1,1125.5,333.1"></path>
	<polygon class="st0" points="1398.3,422.4 1398.3,466.1 1316.7,466.1 1316.7,532 1268.7,532 1268.7,337.9 1411.2,337.9    1411.2,380.4 1316.7,380.4 1316.7,422.4  "></polygon>
	<path class="st0" d="M1600.6,459.2h53.4l-26.8-64.8L1600.6,459.2z M1570.9,532h-52.5l86.5-195.3h44.8l86.2,195.3h-52.2l-13.4-32   H1584L1570.9,532z"></path>
	<polygon class="st0" points="1902.6,422.4 1902.6,466.1 1820.9,466.1 1820.9,532 1773,532 1773,337.9 1915.4,337.9 1915.4,380.4    1820.9,380.4 1820.9,422.4  "></polygon>
	<path class="st0" d="M2031.9,435.8c19.7,0,32.8-12,32.8-30c0-18.8-11.7-28.3-34.8-28.3c-2.9,0-7.7,0-14.3,0.3H2001v58H2031.9z    M2021.3,476.3H2001V532h-48V337.9c26.5-1.1,52.5-1.7,77.9-1.7c51.1,0,81.6,24.6,81.6,69.1c0,26-12.3,46.5-33.7,58.8l46.5,67.9   h-57.1l-35.7-55.7H2021.3z"></path>
	<rect x="2160.9" y="337.9" class="st0" width="48.3" height="194.1"></rect>
	<path class="st0" d="M2424.3,386.7c-26.6-5.1-45.7-7.7-57.1-7.7c-40,0-63.1,22.5-63.1,55.4c0,17.1,5.4,30.8,16.6,41.4   c11.1,10.6,26,15.7,44,15.7c13.7,0,33.7-2.6,59.7-7.7l8,42c-26,7.1-49.7,10.6-71.1,10.6c-32.5,0-58.8-9.4-78.8-28   c-19.7-18.5-29.7-43.1-29.7-73.7c0-30.3,10-54.5,29.7-73.1c20-18.6,46.2-28,78.8-28c23.1,0,46.8,3.1,71.1,9.4L2424.3,386.7z"></path>
	<path class="st0" d="M2544.2,459.2h53.4l-26.8-64.8L2544.2,459.2z M2514.5,532H2462l86.5-195.3h44.8l86.2,195.3h-52.3l-13.4-32   h-86.2L2514.5,532z"></path>
	<path class="st0" d="M3251.9,560.8c-91,91-238.5,91-329.4,0c-91-91-91-238.5,0-329.4c91-91,238.5-91,329.4,0   C3342.8,322.4,3342.8,469.9,3251.9,560.8 M3293.1,229.1c-113.7-113.7-298.1-113.7-411.8,0c-113.7,113.7-113.7,298.1,0,411.8   c113.7,113.7,298.1,113.7,411.8,0C3406.8,527.1,3406.8,342.8,3293.1,229.1"></path>
	<polygon class="st1" points="3166.1,226.9 3001.9,226.9 2935,303.4 2976.1,368.6 3053.9,383.2 3112.1,580.8 3231.1,336  "></polygon>
</g>
</svg>